<?xml version="1.0" encoding="UTF-8" standalone="no"?>
<svg
   xmlns:osb="http://www.openswatchbook.org/uri/2009/osb"
   xmlns:dc="http://purl.org/dc/elements/1.1/"
   xmlns:cc="http://creativecommons.org/ns#"
   xmlns:rdf="http://www.w3.org/1999/02/22-rdf-syntax-ns#"
   xmlns:svg="http://www.w3.org/2000/svg"
   xmlns="http://www.w3.org/2000/svg"
   xmlns:sodipodi="http://sodipodi.sourceforge.net/DTD/sodipodi-0.dtd"
   xmlns:inkscape="http://www.inkscape.org/namespaces/inkscape"
   width="256"
   height="256"
   id="svg2"
   version="1.1"
   sodipodi:docname="accordion.svg"
   inkscape:version="1.0.2 (e86c8708, 2021-01-15)">
  <sodipodi:namedview
     pagecolor="#ffffff"
     bordercolor="#666666"
     borderopacity="1"
     objecttolerance="10"
     gridtolerance="10"
     guidetolerance="10"
     inkscape:pageopacity="0"
     inkscape:pageshadow="2"
     inkscape:window-width="1920"
     inkscape:window-height="1080"
     id="namedview866"
     showgrid="false"
     inkscape:zoom="2.1378932"
     inkscape:cx="163.29051"
     inkscape:cy="123.58014"
     inkscape:window-x="0"
     inkscape:window-y="0"
     inkscape:window-maximized="0"
     inkscape:current-layer="svg2"
     inkscape:document-rotation="0"
     inkscape:snap-page="true" />
  <defs
     id="defs4">
    <linearGradient
       id="linearGradient2279"
       osb:paint="solid">
      <stop
         style="stop-color:#000000;stop-opacity:1;"
         offset="0"
         id="stop2277" />
    </linearGradient>
    <clipPath
       id="clipPath5383"
       clipPathUnits="userSpaceOnUse">
      <path
         id="path5385"
         d="m 24.3333,46.0004 26.1669,0 0,-23.0004 -26.1669,0 0,23.0004 z" />
    </clipPath>
    <clipPath
       id="clipPath5359"
       clipPathUnits="userSpaceOnUse">
      <path
         id="path5361"
         d="m 18,43 28,0 0,-28 -28,0 0,28 z" />
    </clipPath>
    <clipPath
       id="clipPath5347"
       clipPathUnits="userSpaceOnUse">
      <path
         id="path5349"
         d="M 0,64 64,64 64,0 0,0 0,64 Z" />
    </clipPath>
    <clipPath
       id="clipPath5478"
       clipPathUnits="userSpaceOnUse">
      <path
         id="path5480"
         d="m 24.3333,46.0004 26.1669,0 0,-23.0004 -26.1669,0 0,23.0004 z" />
    </clipPath>
    <clipPath
       id="clipPath5454"
       clipPathUnits="userSpaceOnUse">
      <path
         id="path5456"
         d="m 18,43 28,0 0,-28 -28,0 0,28 z" />
    </clipPath>
    <clipPath
       id="clipPath5442"
       clipPathUnits="userSpaceOnUse">
      <path
         id="path5444"
         d="M 0,64 64,64 64,0 0,0 0,64 Z" />
    </clipPath>
    <clipPath
       id="clipPath5549"
       clipPathUnits="userSpaceOnUse">
      <path
         id="path5551"
         d="m 12.2873,54 39.4254,0 0,-48 -39.4254,0 0,48 z" />
    </clipPath>
    <clipPath
       id="clipPath5537"
       clipPathUnits="userSpaceOnUse">
      <path
         id="path5539"
         d="M 0,64 64,64 64,0 0,0 0,64 Z" />
    </clipPath>
    <clipPath
       id="clipPath3416"
       clipPathUnits="userSpaceOnUse">
      <path
         id="path3418"
         d="M 0,64 64,64 64,0 0,0 0,64 Z" />
    </clipPath>
    <clipPath
       id="clipPath3428"
       clipPathUnits="userSpaceOnUse">
      <path
         id="path3430"
         d="m 9,44.3637 46,0 L 55,16 9,16 9,44.3637 Z" />
    </clipPath>
  </defs>
  <metadata
     id="metadata7">
    <rdf:RDF>
      <cc:Work
         rdf:about="">
        <dc:format>image/svg+xml</dc:format>
        <dc:type
           rdf:resource="http://purl.org/dc/dcmitype/StillImage" />
        <dc:title></dc:title>
      </cc:Work>
    </rdf:RDF>
  </metadata>
  <g
     id="g2547">
    <g
       id="g868"
       transform="matrix(11.868393,0,0,11.868393,-20.80734,-20.611248)">
      <path
         style="fill:#96ccee;fill-opacity:1;stroke:#000000;stroke-width:0.0842574px;stroke-linecap:butt;stroke-linejoin:miter;stroke-opacity:1"
         d="m 8.525117,2.628429 2.145842,1.4491403 1.950766,-1.5048765 1.89503,1.4212722 2.062211,-1.3932486 0.02787,19.8699436 -1.922871,-1.39356 -2.006502,1.393404 -1.950766,-1.421273 -2.2599268,1.421429 z"
         id="path2522" />
      <circle
         cx="18.5"
         cy="6.5"
         r="0.5"
         id="circle836" />
      <circle
         cx="18.5"
         cy="8.5"
         r="0.5"
         id="circle838" />
      <circle
         cx="18.5"
         cy="10.5"
         r="0.5"
         id="circle840" />
      <circle
         cx="18.5"
         cy="12.5"
         r="0.5"
         id="circle842" />
      <circle
         cx="18.5"
         cy="14.5"
         r="0.5"
         id="circle844" />
      <circle
         cx="18.5"
         cy="16.5"
         r="0.5"
         id="circle846" />
      <circle
         cx="18.5"
         cy="18.5"
         r="0.5"
         id="circle848" />
      <circle
         cx="20.5"
         cy="7.5"
         r="0.5"
         id="circle850" />
      <circle
         cx="20.5"
         cy="9.5"
         r="0.5"
         id="circle852" />
      <circle
         cx="20.5"
         cy="11.5"
         r="0.5"
         id="circle854" />
      <circle
         cx="20.5"
         cy="13.5"
         r="0.5"
         id="circle856" />
      <circle
         cx="20.5"
         cy="15.5"
         r="0.5"
         id="circle858" />
      <circle
         cx="20.5"
         cy="17.5"
         r="0.5"
         id="circle860" />
      <path
         d="m 12.5,4.938 c -0.276,0 -0.5,0.224 -0.5,0.5 v 14.125 c 0,0.276 0.224,0.5 0.5,0.5 0.276,0 0.5,-0.224 0.5,-0.5 V 5.438 c 0,-0.277 -0.224,-0.5 -0.5,-0.5 z"
         id="path862" />
      <path
         d="M 10.5,7 C 10.224,7 10,7.224 10,7.5 v 10 c 0,0.276 0.224,0.5 0.5,0.5 0.276,0 0.5,-0.224 0.5,-0.5 V 7.5 C 11,7.224 10.776,7 10.5,7 Z"
         id="path864" />
      <path
         d="M 14.5,7 C 14.224,7 14,7.224 14,7.5 v 10 c 0,0.276 0.224,0.5 0.5,0.5 0.276,0 0.5,-0.224 0.5,-0.5 V 7.5 C 15,7.224 14.776,7 14.5,7 Z"
         id="path866" />
      <path
         style="fill:none;stroke:#000000;stroke-width:0.0842574px;stroke-linecap:butt;stroke-linejoin:miter;stroke-opacity:1"
         d="M 2.9793681,3.3529991 4.2613,2.4890885"
         id="path2468" />
      <path
         style="fill:none;stroke:#000000;stroke-width:0.0842574px;stroke-linecap:butt;stroke-linejoin:miter;stroke-opacity:1"
         d="M 8.5251166,2.628429 3.6482021,2.5448247"
         id="path2470" />
      <path
         style="fill:#ffffff;fill-opacity:1;stroke:#000000;stroke-width:0.0842574px;stroke-linecap:butt;stroke-linejoin:miter;stroke-opacity:1"
         d="M 3.0603596,3.0187376 4.2308193,2.461376 8.4946362,2.6007164 8.4667678,22.470659 H 4.0078745 L 2.3079214,20.659233 2.4193938,3.9941205 Z"
         id="path2476" />
      <path
         style="fill:#c0c3ee;fill-opacity:1;stroke:#000000;stroke-width:0.0842574px;stroke-linecap:butt;stroke-linejoin:miter;stroke-opacity:1"
         d="M 22.013241,3.0187376 20.842782,2.461376 16.578965,2.6007164 16.606833,22.470659 h 4.458893 L 22.765679,20.659233 22.654207,3.9941205 Z"
         id="path2498" />
      <path
         d="m 20.596469,1.969517 h -4 c -0.019,0 -0.034,0.009 -0.052,0.011 -0.034,0.003 -0.067,0.009 -0.101,0.021 -0.033,0.011 -0.062,0.025 -0.092,0.042 -0.016,0.009 -0.034,0.012 -0.049,0.022 l -1.759,1.279 -1.641,-1.271 c -0.178999,-0.137 -0.427,-0.139 -0.606,-0.004 0,0 -1.143,0.857 -1.7,1.275 l -1.6999997,-1.275 c -0.016,-0.012 -0.035,-0.015 -0.052,-0.025 -0.03,-0.018 -0.059,-0.033 -0.091,-0.044 -0.032,-0.011 -0.064,-0.016 -0.098,-0.02 -0.02,-0.001 -0.038,-0.011 -0.059,-0.011 H 4.5964688 c -1.378,0 -2.5,1.121 -2.5,2.5 v 15.999999 c 0,1.379001 1.122,2.5 2.5,2.5 h 3.9999995 v 0 c 0,0 0,0 0,0 0,0 0,0 10e-4,0 0.099,0 0.185,-0.036 0.263,-0.086 0.009,-0.006 0.021,-0.003 0.03,-0.01 l 1.7590007,-1.279 1.641,1.271001 c 0.178,0.137 0.426,0.139 0.606,0.005 l 1.7,-1.274999 1.7,1.274999 c 0.016,0.012 0.036,0.015 0.053,0.025 0.029,0.017 0.058,0.031 0.091,0.043 0.034,0.011 0.066,0.017 0.101,0.021 0.019,10e-4 0.035,0.01 0.055,0.01 h 4 c 1.378,0 2.5,-1.120999 2.5,-2.5 v -16 c 0,-1.379 -1.122,-2.5 -2.5,-2.5 z M 4.5964688,21.969516 c -0.827,0 -1.5,-0.672999 -1.5,-1.5 V 4.469517 c 0,-0.827 0.673,-1.5 1.5,-1.5 h 3.4999995 v 2 H 4.5964688 c -0.276,0 -0.5,0.224 -0.5,0.5 0,0.276 0.224,0.5 0.5,0.5 h 3.4999995 v 1 H 4.5964688 c -0.276,0 -0.5,0.224 -0.5,0.5 0,0.276 0.224,0.5 0.5,0.5 H 8.0964683 V 9.9695172 H 4.5964688 c -0.276,0 -0.5,0.2239998 -0.5,0.4999998 0,0.276 0.224,0.5 0.5,0.5 h 3.4999995 v 1 H 4.5964688 c -0.276,0 -0.5,0.224 -0.5,0.5 0,0.276 0.224,0.5 0.5,0.5 h 3.4999995 v 1 H 4.5964688 c -0.276,0 -0.5,0.224 -0.5,0.5 0,0.276 0.224,0.5 0.5,0.5 h 3.4999995 v 2 H 4.5964688 c -0.276,0 -0.5,0.224 -0.5,0.5 0,0.276 0.224,0.5 0.5,0.5 h 3.4999995 v 0.999999 H 4.5964688 c -0.276,0 -0.5,0.224001 -0.5,0.5 0,0.276 0.224,0.5 0.5,0.5 h 3.4999995 v 2 z m 9.7000002,-1.399999 -1.695,1.271 -1.636,-1.267 c -0.176,-0.136 -0.420999,-0.139 -0.599999,-0.009 L 9.0964683,21.488516 V 3.469517 l 1.2000007,0.9 c 0.086,0.064 0.191,0.1 0.3,0.1 0.159001,0 0.167,0 1.995001,-1.371 l 1.635999,1.267 c 0.09,0.069 0.199,0.104 0.307001,0.104 0.102999,0 0.207,-0.032 0.294,-0.096 l 1.267999,-0.923 v 18.018999 l -1.2,-0.899999 c -0.178,-0.133 -0.422,-0.133 -0.6,0 z m 7.8,-0.100001 c 0,0.827001 -0.673,1.5 -1.5,1.5 h -3.5 V 2.969517 h 3.5 c 0.827,0 1.5,0.673 1.5,1.5 z"
         id="path834" />
    </g>
  </g>
</svg>
