<?xml version="1.0" encoding="UTF-8" standalone="no"?>
<svg
   xmlns:dc="http://purl.org/dc/elements/1.1/"
   xmlns:cc="http://creativecommons.org/ns#"
   xmlns:rdf="http://www.w3.org/1999/02/22-rdf-syntax-ns#"
   xmlns:svg="http://www.w3.org/2000/svg"
   xmlns="http://www.w3.org/2000/svg"
   xmlns:sodipodi="http://sodipodi.sourceforge.net/DTD/sodipodi-0.dtd"
   xmlns:inkscape="http://www.inkscape.org/namespaces/inkscape"
   viewBox="0 0 16 16"
   version="1.1"
   id="svg989"
   sodipodi:docname="callout.svg"
   inkscape:version="1.0.2 (e86c8708, 2021-01-15)">
  <metadata
     id="metadata995">
    <rdf:RDF>
      <cc:Work
         rdf:about="">
        <dc:format>image/svg+xml</dc:format>
        <dc:type
           rdf:resource="http://purl.org/dc/dcmitype/StillImage" />
        <dc:title></dc:title>
      </cc:Work>
    </rdf:RDF>
  </metadata>
  <defs
     id="defs993" />
  <sodipodi:namedview
     pagecolor="#ffffff"
     bordercolor="#666666"
     borderopacity="1"
     objecttolerance="10"
     gridtolerance="10"
     guidetolerance="10"
     inkscape:pageopacity="0"
     inkscape:pageshadow="2"
     inkscape:window-width="1920"
     inkscape:window-height="1080"
     id="namedview991"
     showgrid="false"
     inkscape:zoom="16"
     inkscape:cx="20.256804"
     inkscape:cy="-1.6087711"
     inkscape:window-x="0"
     inkscape:window-y="0"
     inkscape:window-maximized="0"
     inkscape:current-layer="svg989"
     inkscape:document-rotation="0" />
  <path
     style="font-size:12px;fill:#96ccee;fill-opacity:1;fill-rule:evenodd;stroke:#000000;stroke-width:0.805459;stroke-linecap:round;stroke-linejoin:round;stroke-miterlimit:4;stroke-dasharray:none;stroke-opacity:1"
     d="m 8.249274,1.0959311 c 3.280836,0.05272 6.174677,1.8810306 6.789065,4.474628 0.701873,2.9628989 -1.835504,5.8079149 -5.664569,6.3527489 -7.94e-4,0.0046 5.76e-4,0.01131 9.27e-4,0.01785 l 0.02196,9.26e-4 2.983712,2.774926 -6.130288,-2.8801 0.06039,0.0019 -0.03934,-0.03005 -0.08784,-0.0028 0.06679,0.03099 -0.08418,-0.0028 V 11.80504 H 6.164975 C 3.512378,11.220722 1.652657,9.637512 1.155522,7.5388912 0.453363,4.5747804 2.993896,1.7283774 6.825582,1.1852017 c 0.47896,-0.067896 0.954999,-0.096742 1.42369,-0.089211 z"
     id="path2391" />
</svg>
