<?xml version="1.0" encoding="UTF-8" standalone="no"?>
<svg
   xmlns:dc="http://purl.org/dc/elements/1.1/"
   xmlns:cc="http://creativecommons.org/ns#"
   xmlns:rdf="http://www.w3.org/1999/02/22-rdf-syntax-ns#"
   xmlns:svg="http://www.w3.org/2000/svg"
   xmlns="http://www.w3.org/2000/svg"
   xmlns:sodipodi="http://sodipodi.sourceforge.net/DTD/sodipodi-0.dtd"
   xmlns:inkscape="http://www.inkscape.org/namespaces/inkscape"
   viewBox="0 0 32 32"
   version="1.1"
   id="svg3290"
   sodipodi:docname="card.svg"
   inkscape:version="1.0.2 (e86c8708, 2021-01-15)">
  <metadata
     id="metadata3294">
    <rdf:RDF>
      <cc:Work
         rdf:about="">
        <dc:format>image/svg+xml</dc:format>
        <dc:type
           rdf:resource="http://purl.org/dc/dcmitype/StillImage" />
      </cc:Work>
    </rdf:RDF>
  </metadata>
  <sodipodi:namedview
     pagecolor="#ffffff"
     bordercolor="#666666"
     borderopacity="1"
     objecttolerance="10"
     gridtolerance="10"
     guidetolerance="10"
     inkscape:pageopacity="0"
     inkscape:pageshadow="2"
     inkscape:window-width="1920"
     inkscape:window-height="1052"
     id="namedview3292"
     showgrid="false"
     inkscape:zoom="10.098369"
     inkscape:cx="21.841864"
     inkscape:cy="6.7722737"
     inkscape:window-x="0"
     inkscape:window-y="28"
     inkscape:window-maximized="0"
     inkscape:current-layer="svg3290" />
  <defs
     id="defs3275">
    <style
       id="style3273">.cls-1{fill:#04009a;}.cls-2{fill:#77acf1;}</style>
  </defs>
  <g
     data-name="7. Id Card"
     id="_7._Id_Card"
     style="fill:#447acc;fill-opacity:1">
    <path
       class="cls-1"
       d="m 29,9 h -8.015015 v 2 H 29 c 0.552285,0 1,0.447715 1,1 v 16 c 0,0.552285 -0.447715,1 -1,1 H 3 C 2.4477153,29 2,28.552285 2,28 V 12 c 0,-0.552285 0.4477153,-1 1,-1 h 8 c 0,1.104569 0.895431,2 2,2 h 6 c 1.104569,0 2,-0.895431 2,-2 V 3 C 21,1.8954305 20.104569,1 19,1 H 13 C 11.895431,1 11,1.8954305 11,3 V 9 H 3 C 1.3431458,9 0,10.343146 0,12 v 16 c 0,1.656854 1.3431458,3 3,3 h 26 c 1.656854,0 3,-1.343146 3,-3 V 12 C 32,10.343146 30.656854,9 29,9 Z M 13,3 h 6 v 8 h -6 z"
       id="path3277"
       style="fill:#447acc;fill-opacity:1"
       sodipodi:nodetypes="sccsssssssscssssssscssssssssccccc" />
    <path
       class="cls-1"
       d="M4,26a1,1,0,0,0,1,1h8a1,1,0,0,0,1-1,5,5,0,0,0-2.207-4.145,4,4,0,1,0-5.586,0A5,5,0,0,0,4,26Zm3-7a2,2,0,1,1,2,2A2,2,0,0,1,7,19Zm2,4a3.006,3.006,0,0,1,2.829,2H6.171A3.006,3.006,0,0,1,9,23Z"
       id="path3279"
       style="fill:#447acc;fill-opacity:1" />
    <path
       class="cls-2"
       d="M25,25H19a1,1,0,0,1,0-2h6a1,1,0,0,1,0,2Z"
       id="path3281"
       style="fill:#5599ff;fill-opacity:1" />
    <path
       class="cls-2"
       d="M27,21H19a1,1,0,0,1,0-2h8a1,1,0,0,1,0,2Z"
       id="path3283"
       style="fill:#5599ff;fill-opacity:1" />
    <path
       class="cls-2"
       d="M27,17H19a1,1,0,0,1,0-2h8a1,1,0,0,1,0,2Z"
       id="path3285"
       style="fill:#5599ff;fill-opacity:1" />
    <path
       class="cls-2"
       d="M16.02,9a1,1,0,0,1-.01-2h.01a1,1,0,0,1,0,2Z"
       id="path3287"
       style="fill:#5599ff;fill-opacity:1" />
  </g>
</svg>
