<?xml version="1.0" encoding="UTF-8" standalone="no"?>
<svg
   xmlns:dc="http://purl.org/dc/elements/1.1/"
   xmlns:cc="http://creativecommons.org/ns#"
   xmlns:rdf="http://www.w3.org/1999/02/22-rdf-syntax-ns#"
   xmlns:svg="http://www.w3.org/2000/svg"
   xmlns="http://www.w3.org/2000/svg"
   xmlns:sodipodi="http://sodipodi.sourceforge.net/DTD/sodipodi-0.dtd"
   xmlns:inkscape="http://www.inkscape.org/namespaces/inkscape"
   data-name="Layer 1"
   id="Layer_1"
   viewBox="0 0 24 24"
   version="1.1"
   sodipodi:docname="feedback.svg"
   inkscape:version="1.0.2 (e86c8708, 2021-01-15)">
  <metadata
     id="metadata3318">
    <rdf:RDF>
      <cc:Work
         rdf:about="">
        <dc:format>image/svg+xml</dc:format>
        <dc:type
           rdf:resource="http://purl.org/dc/dcmitype/StillImage" />
      </cc:Work>
    </rdf:RDF>
  </metadata>
  <defs
     id="defs3316" />
  <sodipodi:namedview
     pagecolor="#ffffff"
     bordercolor="#666666"
     borderopacity="1"
     objecttolerance="10"
     gridtolerance="10"
     guidetolerance="10"
     inkscape:pageopacity="0"
     inkscape:pageshadow="2"
     inkscape:window-width="1920"
     inkscape:window-height="995"
     id="namedview3314"
     showgrid="false"
     inkscape:zoom="13.464492"
     inkscape:cx="14.106716"
     inkscape:cy="-2.9706793"
     inkscape:window-x="0"
     inkscape:window-y="25"
     inkscape:window-maximized="0"
     inkscape:current-layer="Layer_1"
     inkscape:document-rotation="0" />
  <title
     id="title3309" />
  <path
     id="path911"
     d="M 5.751168,4.8677799 C 5.5655338,4.863502 5.3761522,4.886655 5.1883481,4.9402422 4.1867304,5.2260446 3.6072994,6.2722387 3.8931043,7.273859 l 0.1494339,0.5244075 c 0.081284,0.2884251 0.1861878,0.5715848 0.3094237,0.8442768 h -2.420164 c -0.9282043,0 -1.67810856,0.7525258 -1.67810856,1.6781057 0,0.464102 0.18880588,0.883628 0.49296553,1.193029 -0.0472157,0.154701 -0.0734409,0.319869 -0.0734409,0.490301 0,0.545385 0.25960669,1.030463 0.66340003,1.337241 -0.020978,0.110126 -0.034096,0.222874 -0.034096,0.340866 0,0.532274 0.2464717,1.004241 0.6292921,1.31102 0.028838,0.901982 0.7682534,1.625666 1.678103,1.625666 h 2.5564905 c 0.5794697,0 1.145821,-0.170402 1.6282807,-0.492913 L 9.4125111,15.048213 C 9.7035578,14.854182 9.7821981,14.4661 9.5881675,14.175053 9.3941364,13.884006 9.0034316,13.805366 8.715007,13.999397 l -1.6177765,1.077649 c -0.2753156,0.183542 -0.6004481,0.280538 -0.930828,0.280538 H 3.609912 c -0.2307406,0 -0.4195244,-0.188788 -0.4195244,-0.419527 0,-0.03933 0.00499,-0.07864 0.01572,-0.112718 0.086526,-0.312023 -0.076049,-0.637176 -0.3775842,-0.755168 -0.1573216,-0.06031 -0.2674279,-0.215017 -0.2674279,-0.390694 0,-0.09964 0.034096,-0.188798 0.089161,-0.259592 0.1363432,-0.173056 0.1704234,-0.403764 0.094381,-0.610905 -0.076037,-0.207142 -0.2569609,-0.356629 -0.471965,-0.398582 -0.1940311,-0.03671 -0.3408635,-0.20712 -0.3408635,-0.411639 0,-0.107504 0.0393,-0.204509 0.1048811,-0.277927 0.1363432,-0.1547 0.1888059,-0.367116 0.138989,-0.569013 -0.049816,-0.201897 -0.1966658,-0.364443 -0.390697,-0.43786 -0.1599453,-0.06031 -0.272703,-0.215008 -0.272703,-0.393307 0,-0.230739 0.1887893,-0.4195269 0.4195299,-0.4195269 h 3.503033 c 0.2359825,0 0.4510142,-0.131102 0.5585189,-0.340864 0.1074992,-0.209764 0.09174,-0.46149 -0.044614,-0.652899 C 5.6367275,8.466859 5.4007505,7.973915 5.2512944,7.4521284 L 5.1018604,6.9277208 C 5.007463,6.5920993 5.198876,6.2433883 5.5344978,6.1489953 5.8701195,6.0546006 6.2188264,6.2486326 6.3132238,6.5816324 L 6.4627076,7.1060408 C 6.6121637,7.6330709 6.8822264,8.1181376 7.2519339,8.5245547 L 8.5970113,10.003396 C 8.8303706,10.260355 9.228932,10.2787 9.4858918,10.045336 9.7428517,9.8119751 9.7611959,9.4134141 9.5278318,9.1564551 L 8.1827565,7.6776116 C 7.9441504,7.4154075 7.768474,7.1007633 7.6714584,6.7598974 L 7.5219746,6.2354899 C 7.2897561,5.4216734 6.5555774,4.8865433 5.7511735,4.8677782 Z m 12.082439,2.513421 c -0.579472,0 -1.145822,0.1704539 -1.628278,0.4929641 L 14.58755,8.9518141 c -0.291047,0.194031 -0.369739,0.582113 -0.175707,0.87316 0.19403,0.2910469 0.584735,0.3696869 0.873159,0.1756559 l 1.617779,-1.0776479 c 0.275316,-0.183543 0.600448,-0.2805898 0.930826,-0.2805898 h 2.556489 c 0.230739,0 0.419527,0.1887868 0.419527,0.4195278 0,0.03933 -0.0052,0.07868 -0.01572,0.112767 -0.08653,0.312023 0.07605,0.637177 0.377584,0.755168 0.157322,0.06031 0.267427,0.2149669 0.267427,0.3906429 0,0.09964 -0.03405,0.188798 -0.08911,0.259593 -0.136347,0.173054 -0.170474,0.403815 -0.09444,0.610956 0.07604,0.207141 0.25696,0.356577 0.471967,0.39853 0.194032,0.03671 0.340865,0.207172 0.340865,0.411691 0,0.107504 -0.03933,0.204508 -0.104881,0.277927 -0.136345,0.154699 -0.188757,0.367064 -0.138937,0.568962 0.04981,0.201897 0.196662,0.364494 0.390694,0.437912 0.159944,0.06031 0.272651,0.215007 0.272651,0.393306 0,0.230739 -0.188787,0.419526 -0.419527,0.419526 h -3.503037 c -0.235983,0 -0.45096,0.131102 -0.558463,0.340865 -0.107504,0.209764 -0.09179,0.461438 0.04455,0.652848 0.312022,0.440503 0.547996,0.933446 0.697452,1.455233 l 0.149487,0.524408 c 0.09439,0.335621 -0.09701,0.684383 -0.432637,0.778777 -0.33562,0.09439 -0.684383,-0.09964 -0.778777,-0.432637 l -0.14943,-0.524408 C 17.38789,16.366956 17.11783,15.881889 16.748122,15.475473 l -1.345128,-1.478842 c -0.233361,-0.25696 -0.631921,-0.275303 -0.888882,-0.04194 -0.25696,0.233363 -0.275304,0.631871 -0.04194,0.888831 l 1.345127,1.478841 c 0.238606,0.262205 0.414284,0.57685 0.511298,0.917715 l 0.149437,0.524408 c 0.285802,1.001619 1.331996,1.581101 2.333617,1.295298 1.001619,-0.285801 1.5811,-1.331996 1.295298,-2.333616 L 19.957461,16.20176 c -0.08128,-0.288425 -0.186134,-0.571585 -0.309369,-0.844277 h 2.420113 c 0.928203,0 1.678106,-0.752525 1.678106,-1.678106 0,-0.464101 -0.188755,-0.883649 -0.492913,-1.187805 0.0472,-0.154701 0.07339,-0.319869 0.07339,-0.490301 0,-0.545385 -0.259551,-1.030462 -0.663345,-1.337241 0.02098,-0.110126 0.03406,-0.222874 0.03406,-0.340866 0,-0.5322739 -0.246472,-1.0042409 -0.62929,-1.3110199 C 22.039363,8.1101616 21.299954,7.3864786 20.390107,7.3864786 Z M 11.16051,9.0645831 c -0.464101,0 -0.839053,0.374951 -0.839053,0.839052 v 5.8733729 c 0,0.464101 0.374952,0.839053 0.839053,0.839053 h 1.678107 c 0.464101,0 0.839054,-0.374952 0.839054,-0.839053 V 9.9036351 c 0,-0.464101 -0.374953,-0.839052 -0.839054,-0.839052 z"
     style="fill:#447acc;fill-opacity:1;stroke-width:0.0262204" />
</svg>
