<?xml version="1.0" encoding="UTF-8" standalone="no"?>
<svg
   xmlns:dc="http://purl.org/dc/elements/1.1/"
   xmlns:cc="http://creativecommons.org/ns#"
   xmlns:rdf="http://www.w3.org/1999/02/22-rdf-syntax-ns#"
   xmlns:svg="http://www.w3.org/2000/svg"
   xmlns="http://www.w3.org/2000/svg"
   width="1200"
   height="1200"
   viewBox="0 0 1200 1200"
   id="svg2"
   version="1.1">
  <defs
     id="defs4" />
  <metadata
     id="metadata7">
    <rdf:RDF>
      <cc:Work
         rdf:about="">
        <dc:format>image/svg+xml</dc:format>
        <dc:type
           rdf:resource="http://purl.org/dc/dcmitype/StillImage" />
        <dc:title></dc:title>
      </cc:Work>
    </rdf:RDF>
  </metadata>
  <g
     id="layer1"
     transform="translate(0,147.6378)">
    <path
       class="cls-1"
       d="m -3.297513,-150.76576 1203.000113,0 0,1202.99996 -1203.000113,0 z"
       id="path4193"
       style="fill:#0059b3;fill-opacity:1" />
    <text
       xml:space="preserve"
       style="font-style:normal;font-weight:normal;font-size:40px;line-height:125%;font-family:sans-serif;letter-spacing:0px;word-spacing:0px;fill:#ffffff;fill-opacity:1;stroke:none;stroke-width:1px;stroke-linecap:butt;stroke-linejoin:miter;stroke-opacity:1;"
       x="-226.27417"
       y="846.29108"
       id="text4144"><tspan
         id="tspan4146"
         x="-226.27417"
         y="846.29108"
         style="-inkscape-font-specification:'Font Awesome 5 Free';font-family:'Font Awesome 5 Free';font-weight:normal;font-style:normal;font-stretch:normal;font-variant:normal;fill:#ffffff;fill-opacity:1;"></tspan></text>
  </g>
  <g
     id="text4762"
     style="font-style:normal;font-weight:normal;font-size:824.50366211px;line-height:125%;font-family:sans-serif;letter-spacing:0px;word-spacing:0px;fill:#ffffff;fill-opacity:1;stroke:none;stroke-width:1px;stroke-linecap:butt;stroke-linejoin:miter;stroke-opacity:1">
    <path
       id="path4767"
       style="font-style:normal;font-variant:normal;font-weight:normal;font-stretch:normal;font-family:'Font Awesome 5 Free';-inkscape-font-specification:'Font Awesome 5 Free';fill:#ffffff"
       d="m 991.95826,808.92245 c 6.44143,0 12.88284,3.22072 17.71394,8.0518 4.8311,4.83107 8.0518,11.27251 8.0518,17.71394 l 0,51.53148 c 0,8.0518 -3.2207,14.49323 -8.0518,19.32431 -4.8311,4.83107 -11.27251,6.44143 -17.71394,6.44143 l -541.08053,0 0,25.76574 c 0,8.0518 -3.22072,14.49323 -8.05179,19.32431 -4.83108,4.83107 -11.27251,6.44143 -17.71395,6.44143 l -51.53148,0 c -8.05179,0 -14.49323,-1.61036 -19.3243,-6.44143 -4.83108,-4.83108 -6.44144,-11.27251 -6.44144,-19.32431 l 0,-25.76574 -128.82869,0 c -8.0518,0 -14.49323,-1.61036 -19.32431,-6.44143 -4.83107,-4.83108 -6.44143,-11.27251 -6.44143,-19.32431 l 0,-51.53148 c 0,-6.44143 1.61036,-12.88287 6.44143,-17.71394 4.83108,-4.83108 11.27251,-8.0518 19.32431,-8.0518 l 128.82869,0 0,-25.76573 c 0,-6.44144 1.61036,-12.88287 6.44144,-17.71395 4.83107,-4.83108 11.27251,-8.05179 19.3243,-8.05179 l 51.53148,0 c 6.44144,0 12.88287,3.22071 17.71395,8.05179 4.83107,4.83108 8.05179,11.27251 8.05179,17.71395 l 0,25.76573 541.08053,0 z m 0,-257.65739 c 6.44143,0 12.88284,3.22072 17.71394,8.05179 4.8311,4.83108 8.0518,11.27252 8.0518,17.71395 l 0,51.53148 c 0,8.05179 -3.2207,14.49323 -8.0518,19.3243 -4.8311,4.83108 -11.27251,6.44144 -17.71394,6.44144 l -128.8287,0 0,25.76574 c 0,8.05179 -3.22072,14.49323 -8.05179,19.3243 -4.83108,4.83108 -11.27251,6.44144 -17.71395,6.44144 l -51.53148,0 c -8.05179,0 -14.49322,-1.61036 -19.3243,-6.44144 -4.83108,-4.83107 -6.44144,-11.27251 -6.44144,-19.3243 l 0,-25.76574 -541.08052,0 c -8.0518,0 -14.49323,-1.61036 -19.32431,-6.44144 -4.83107,-4.83107 -6.44143,-11.27251 -6.44143,-19.3243 l 0,-51.53148 c 0,-6.44143 1.61036,-12.88287 6.44143,-17.71395 4.83108,-4.83107 11.27251,-8.05179 19.32431,-8.05179 l 541.08052,0 0,-25.76574 c 0,-6.44143 1.61036,-12.88287 6.44144,-17.71394 4.83108,-4.83108 11.27251,-8.0518 19.3243,-8.0518 l 51.53148,0 c 6.44144,0 12.88287,3.22072 17.71395,8.0518 4.83107,4.83107 8.05179,11.27251 8.05179,17.71394 l 0,25.76574 128.8287,0 z m 0,-257.65739 c 6.44143,0 12.88284,3.22071 17.71394,8.05179 4.8311,4.83108 8.0518,11.27251 8.0518,17.71395 l 0,51.53147 c 0,8.0518 -3.2207,14.49323 -8.0518,19.32431 -4.8311,4.83108 -11.27251,6.44143 -17.71394,6.44143 l -334.95461,0 0,25.76574 c 0,8.0518 -3.22072,14.49323 -8.0518,19.32431 -4.83107,4.83107 -11.27251,6.44143 -17.71394,6.44143 l -51.53148,0 c -8.0518,0 -14.49323,-1.61036 -19.32431,-6.44143 -4.83107,-4.83108 -6.44143,-11.27251 -6.44143,-19.32431 l 0,-25.76574 -334.95461,0 c -8.0518,0 -14.49323,-1.61035 -19.32431,-6.44143 -4.83107,-4.83108 -6.44143,-11.27251 -6.44143,-19.32431 l 0,-51.53147 c 0,-6.44144 1.61036,-12.88287 6.44143,-17.71395 4.83108,-4.83108 11.27251,-8.05179 19.32431,-8.05179 l 334.95461,0 0,-25.76574 c 0,-6.44144 1.61036,-12.88287 6.44143,-17.71395 4.83108,-4.83108 11.27251,-8.05179 19.32431,-8.05179 l 51.53148,0 c 6.44143,0 12.88287,3.22071 17.71394,8.05179 4.83108,4.83108 8.0518,11.27251 8.0518,17.71395 l 0,25.76574 334.95461,0 z" />
  </g>
</svg>
