<?xml version="1.0" encoding="UTF-8" standalone="no"?>
<svg
   xmlns:dc="http://purl.org/dc/elements/1.1/"
   xmlns:cc="http://creativecommons.org/ns#"
   xmlns:rdf="http://www.w3.org/1999/02/22-rdf-syntax-ns#"
   xmlns:svg="http://www.w3.org/2000/svg"
   xmlns="http://www.w3.org/2000/svg"
   xmlns:sodipodi="http://sodipodi.sourceforge.net/DTD/sodipodi-0.dtd"
   xmlns:inkscape="http://www.inkscape.org/namespaces/inkscape"
   data-name="Layer 1"
   id="Layer_1"
   viewBox="0 0 24 24"
   version="1.1"
   sodipodi:docname="timeline.svg"
   inkscape:version="1.0.2 (e86c8708, 2021-01-15)">
  <metadata
     id="metadata3318">
    <rdf:RDF>
      <cc:Work
         rdf:about="">
        <dc:format>image/svg+xml</dc:format>
        <dc:type
           rdf:resource="http://purl.org/dc/dcmitype/StillImage" />
      </cc:Work>
    </rdf:RDF>
  </metadata>
  <defs
     id="defs3316" />
  <sodipodi:namedview
     pagecolor="#ffffff"
     bordercolor="#666666"
     borderopacity="1"
     objecttolerance="10"
     gridtolerance="10"
     guidetolerance="10"
     inkscape:pageopacity="0"
     inkscape:pageshadow="2"
     inkscape:window-width="1920"
     inkscape:window-height="1052"
     id="namedview3314"
     showgrid="false"
     inkscape:zoom="13.464492"
     inkscape:cx="26.070785"
     inkscape:cy="0.81129153"
     inkscape:window-x="0"
     inkscape:window-y="28"
     inkscape:window-maximized="0"
     inkscape:current-layer="Layer_1" />
  <title
     id="title3309" />
  <path
     d="m 12,3.8 c 3.742061,0 5.615413,4.523982 2.969698,7.169698 C 12.323982,13.615413 7.8,11.742061 7.8,8 7.8,5.680404 9.6804041,3.8 12,3.8 Z"
     id="path3311-1"
     style="fill:#aaccff;fill-opacity:1"
     sodipodi:nodetypes="ssss" />
  <path
     d="M12,14A6,6,0,1,0,6,8,6,6,0,0,0,12,14ZM12,3.8A4.2,4.2,0,1,1,7.8,8,4.2,4.2,0,0,1,12,3.8Zm2.61,3.4H12.8V5H11.2V8.8h3.41ZM20,20V17H18v3H13V17H11v3H6V17H4v3H1v2H23V20Z"
     id="path3311"
     style="fill:#447acc;fill-opacity:1" />
</svg>
